<svg xmlns="http://www.w3.org/2000/svg" version="1.1" xmlns:xlink="http://www.w3.org/1999/xlink" xmlns:svgjs="http://svgjs.dev/svgjs" width="512" height="512"><svg width="512" height="512" viewBox="0 0 512 512" fill="none" xmlns="http://www.w3.org/2000/svg">
<rect width="512" height="512" rx="100" fill="#0F172A"></rect>
<path d="M229.2 361.75C205.633 361.75 181.833 354.867 157.8 341.1C143.1 347.867 129.1 351.25 115.8 351.25C102.967 351.25 90.3667 348.45 78 342.85C63.0667 335.617 55.6 326.283 55.6 314.85C55.6 306.917 58.75 300.5 65.05 295.6C70.8833 291.167 77.8833 288.95 86.05 288.95C105.65 288.95 123.85 296.533 140.65 311.7C144.85 315.667 148.583 319.05 151.85 321.85C155.117 324.65 157.917 326.983 160.25 328.85C171.45 319.75 182.417 306.217 193.15 288.25C197.583 280.55 201.9 272.85 206.1 265.15C210.3 257.45 214.5 249.75 218.7 242.05C198.167 240.65 180.083 235.633 164.45 227C144.383 216.033 134.35 201.567 134.35 183.6C134.35 169.6 139.25 157.7 149.05 147.9C158.85 138.1 170.75 133.2 184.75 133.2C193.617 133.2 201.317 135.417 207.85 139.85C215.083 145.217 218.7 152.1 218.7 160.5C218.7 163.767 217.65 165.4 215.55 165.4C214.617 165.4 214.15 163.533 214.15 159.8C214.15 159.333 214.033 158.633 213.8 157.7C213.567 156.767 213.217 155.6 212.75 154.2C208.55 142.3 199.333 136.35 185.1 136.35C173.433 136.35 163.283 141.367 154.65 151.4C146.25 161.2 142.05 171.933 142.05 183.6C142.05 200.4 151.383 213.933 170.05 224.2C184.75 232.367 201.667 237.033 220.8 238.2C228.267 225.133 235.85 213.233 243.55 202.5C251.483 191.533 259.417 181.617 267.35 172.75C291.15 146.617 312.733 133.55 332.1 133.55C338.867 133.55 344.583 135.067 349.25 138.1C354.617 141.6 357.3 146.5 357.3 152.8C357.3 161.9 351.933 173.1 341.2 186.4C337.233 191.3 332.917 195.967 328.25 200.4C323.583 204.833 318.567 209.033 313.2 213C308.767 216.5 304.1 219.65 299.2 222.45C294.533 225.25 289.633 227.933 284.5 230.5C273.3 235.867 260.583 239.367 246.35 241C236.55 263.4 226.283 281.367 215.55 294.9C202.717 311.233 187.083 324.65 168.65 335.15C190.35 350.55 211.233 358.25 231.3 358.25C242.033 358.25 251.367 356.15 259.3 351.95C269.1 346.583 274 339 274 329.2C274 327.8 274.467 327.1 275.4 327.1C276.333 327.1 276.8 327.917 276.8 329.55V330.6C276.8 340.867 272.483 348.567 263.85 353.7C255.45 359.067 243.9 361.75 229.2 361.75ZM248.45 236.45C254.283 235.517 260 234.35 265.6 232.95C271.2 231.55 276.683 229.8 282.05 227.7C286.717 225.833 291.267 223.617 295.7 221.05C300.133 218.483 304.567 215.567 309 212.3C319.033 204.833 328.133 195.967 336.3 185.7C347.033 172.867 352.4 161.9 352.4 152.8C352.4 145.333 348.55 141.6 340.85 141.6C334.55 141.6 327.083 143.817 318.45 148.25C304.683 155.483 292.317 165.75 281.35 179.05C270.383 192.35 260.7 208.567 252.3 227.7L248.45 236.45ZM112.3 346.7C126.3 346.7 138.9 343.317 150.1 336.55C144.033 332.583 137.967 328.617 131.9 324.65C125.833 320.683 119.767 316.833 113.7 313.1C96.4333 302.367 83.7167 297 75.55 297C65.05 297 59.8 301.783 59.8 311.35C59.8 320.683 64.9333 328.85 75.2 335.85C83.8333 341.683 93.1667 345.183 103.2 346.35C104.833 346.583 106.35 346.7 107.75 346.7C109.383 346.7 110.9 346.7 112.3 346.7ZM306.285 341.1C300.451 341.1 295.785 339.117 292.285 335.15C289.018 331.183 287.385 326.4 287.385 320.8C287.385 315.667 288.901 308.9 291.935 300.5C295.201 292.1 299.751 282.067 305.585 270.4C308.151 265.267 311.418 259.083 315.385 251.85C319.585 244.383 324.601 235.867 330.435 226.3H331.135C332.768 227.467 334.635 228.05 336.735 228.05C341.635 228.05 347.235 225.6 353.535 220.7L354.235 221.4C350.735 225.367 344.668 235.05 336.035 250.45C333.235 255.35 330.551 259.9 327.985 264.1C325.651 268.3 323.318 272.267 320.985 276C307.218 299.567 300.335 316.833 300.335 327.8C300.335 334.1 303.251 337.25 309.085 337.25C322.151 337.25 340.235 316.833 363.335 276C366.601 270.167 370.451 262.933 374.885 254.3C379.318 245.667 384.451 235.633 390.285 224.2H390.985C392.618 224.9 394.135 225.483 395.535 225.95C396.935 226.417 398.335 226.65 399.735 226.65C404.868 226.65 408.485 224.317 410.585 219.65L411.635 220L384.335 272.85C368.235 303.65 360.185 323.133 360.185 331.3C360.185 335.5 362.168 337.6 366.135 337.6C368.935 337.6 372.318 336.433 376.285 334.1C380.485 331.767 384.801 328.15 389.235 323.25C394.835 316.717 399.618 310.533 403.585 304.7C407.785 298.633 412.568 290.467 417.935 280.2C418.635 279.033 419.335 278.45 420.035 278.45C421.435 278.45 421.435 279.617 420.035 281.95C415.835 289.883 411.285 297.817 406.385 305.75C401.718 313.45 396.001 320.683 389.235 327.45C380.368 336.317 372.551 340.75 365.785 340.75C359.718 340.75 355.051 339.233 351.785 336.2C348.751 333.167 347.235 328.267 347.235 321.5C347.235 315.9 348.401 309.717 350.735 302.95C335.101 328.383 320.285 341.1 306.285 341.1Z" fill="white"></path>
</svg><style>@media (prefers-color-scheme: light) { :root { filter: none; } }
@media (prefers-color-scheme: dark) { :root { filter: none; } }
</style></svg>